<svg width="88" height="106" viewBox="-10 -5 125 125" fill="none" xmlns="http://www.w3.org/2000/svg">
<path d="M61 32C61 30.6667 61.6667 30 63 30C64.3333 30 65 30.6667 65 32C65 33.3333 64.3333 34 63 34C61.6667 34 61 33.6667 61 32Z" fill="black"/>
<path d="M79 19C79 17.6667 79.6667 17 81 17C82.3333 17 83 17.6667 83 19C83 20.3333 82.3333 21 81 21C79.6667 21 79 20.6667 79 19Z" fill="black"/>
<path d="M73 44C73 42.6667 73.6667 42 75 42C76.3333 42 77 42.6667 77 44C77 45.3333 76.3333 46 75 46C73.6667 46 73 45.6667 73 44Z" fill="black"/>
<path d="M54.5 2.50002L54.6678 4.49297L54.6678 4.49297L54.5 2.50002ZM3.5 64.5L1.53025 64.8465L1.54202 64.9135L1.55831 64.9794L3.5 64.5ZM50.5 107.5L50.3652 109.495L50.4325 109.5H50.5V107.5ZM89 84.5L90.9231 85.0494L89 84.5ZM85 81.5L85.1425 79.5051L85.0837 79.5009L85.0247 79.5002L85 81.5ZM47 43L45.0017 43.0833L47 43ZM56.5 8.50002L58.0617 9.74941L58.0617 9.74941L56.5 8.50002ZM85.5 92.5L83.8359 91.3906L85.5 92.5ZM54.3322 0.507074C29.9404 2.56112 15.8011 13.9253 8.25898 27.2657C0.787623 40.4809 -0.120262 55.4647 1.53025 64.8465L5.46975 64.1535C3.9536 55.5353 4.79571 41.5191 11.741 29.2343C18.6156 17.0747 31.5596 6.43892 54.6678 4.49297L54.3322 0.507074ZM1.55831 64.9794C9.82416 98.4561 37.429 108.621 50.3652 109.495L50.6348 105.505C38.9043 104.712 13.1758 95.3439 5.44169 64.0206L1.55831 64.9794ZM90.9231 85.0494C91.2143 84.03 91.3583 82.9415 91.0201 81.9388C90.6289 80.7793 89.75 80.156 88.9107 79.8623C88.1734 79.6042 87.3751 79.5635 86.8055 79.5477C86.1103 79.5284 85.6771 79.5433 85.1425 79.5051L84.8575 83.4949C85.4895 83.5401 86.2647 83.5342 86.6945 83.5461C87.2499 83.5615 87.4933 83.6041 87.5893 83.6377C87.6121 83.6457 87.5413 83.6251 87.4447 83.5374C87.336 83.4387 87.2638 83.3177 87.2299 83.2174C87.1833 83.0793 87.2857 83.22 87.077 83.9506L90.9231 85.0494ZM85.0247 79.5002C69.4151 79.3075 60.6917 73.3411 55.7134 66.0447C50.6454 58.617 49.2741 49.5379 48.9983 42.9167L45.0017 43.0833C45.2894 49.9873 46.7182 59.9583 52.4092 68.2992C58.19 76.7716 68.1848 83.2926 84.9753 83.4999L85.0247 79.5002ZM48.9983 42.9167C48.5087 31.1677 50.3484 23.4689 52.4666 18.4675C54.5832 13.4701 56.9864 11.0936 58.0617 9.74941L54.9383 7.25063C54.0136 8.40646 51.1668 11.2799 48.7834 16.9075C46.4016 22.5311 44.4913 30.8323 45.0017 43.0833L48.9983 42.9167ZM54.6678 4.49297C55.9205 4.38748 56.8107 4.35172 57.4119 4.40756C57.5513 4.42051 57.6553 4.43685 57.7299 4.45273C57.8055 4.46881 57.8351 4.4811 57.832 4.47984C57.8245 4.47673 57.6172 4.38687 57.4538 4.11072C57.2868 3.82854 57.3112 3.59881 57.3122 3.5917C57.3123 3.59076 57.311 3.60114 57.3054 3.62401C57.2998 3.64684 57.2906 3.67984 57.2757 3.7238C57.2455 3.81319 57.1961 3.93536 57.1185 4.09439C56.7902 4.76659 56.1159 5.77852 54.9383 7.25063L58.0617 9.74941C59.2841 8.22151 60.1848 6.9308 60.7128 5.84971C61.1731 4.90702 61.6977 3.42782 60.8962 2.07352C60.1145 0.752722 58.6178 0.50235 57.7818 0.424705C56.7893 0.332523 55.5795 0.402036 54.3322 0.507074L54.6678 4.49297ZM50.5 109.5C63.3169 109.5 71.4127 107.274 76.8993 104.067C82.4111 100.844 85.0765 96.7407 87.1641 93.6094L83.8359 91.3906C81.7632 94.4996 79.5286 97.8961 74.8805 100.614C70.2072 103.346 62.8831 105.5 50.5 105.5V109.5ZM87.1641 93.6094C88.7601 91.2154 89.6746 89.1844 90.2109 87.6544C90.6898 86.2882 90.9661 84.8987 90.9231 85.0494L87.077 83.9506C86.8965 84.5821 86.9229 84.9426 86.4361 86.3312C86.0068 87.556 85.2399 89.2846 83.8359 91.3906L87.1641 93.6094ZM63 28C62.025 28 60.9265 28.2451 60.0858 29.0858C59.2451 29.9265 59 31.025 59 32H63C63 31.9159 63.0053 31.855 63.0111 31.8141C63.017 31.7733 63.0228 31.7562 63.0224 31.7575C63.0217 31.7593 63.0148 31.7792 62.9962 31.8102C62.987 31.8256 62.9756 31.8426 62.9615 31.8607C62.9475 31.8788 62.9316 31.8968 62.9142 31.9142C62.8968 31.9316 62.8788 31.9475 62.8607 31.9615C62.8426 31.9756 62.8256 31.987 62.8102 31.9962C62.7792 32.0148 62.7593 32.0217 62.7575 32.0224C62.7562 32.0228 62.7733 32.017 62.8141 32.0111C62.855 32.0053 62.9159 32 63 32V28ZM59 32C59 33.0058 59.1836 34.2556 60.183 35.1302C61.1164 35.9469 62.298 36 63 36V32C62.9373 32 62.8811 31.999 62.8307 31.9972C62.7802 31.9953 62.7371 31.9927 62.7003 31.9896C62.6635 31.9865 62.6347 31.983 62.6128 31.9798C62.5909 31.9765 62.5777 31.9738 62.5718 31.9724C62.5658 31.9711 62.5687 31.9714 62.5786 31.9747C62.5886 31.9781 62.6064 31.9846 62.6301 31.9957C62.654 32.0069 62.6832 32.0225 62.7158 32.0434C62.7486 32.0645 62.7828 32.0899 62.817 32.1198C62.8513 32.1498 62.8829 32.1821 62.9114 32.2159C62.9399 32.2496 62.9631 32.2823 62.9815 32.3121C63.0187 32.3721 63.0319 32.4126 63.0333 32.4169C63.0339 32.419 63.0318 32.4126 63.0284 32.3962C63.025 32.3797 63.0205 32.3545 63.0162 32.3192C63.0118 32.2839 63.0077 32.24 63.0047 32.1865C63.0018 32.1329 63 32.071 63 32H59ZM63 36C63.975 36 65.0735 35.7549 65.9142 34.9142C66.7549 34.0735 67 32.975 67 32H63C63 32.0841 62.9947 32.145 62.9889 32.1859C62.983 32.2267 62.9772 32.2438 62.9776 32.2425C62.9783 32.2407 62.9852 32.2208 63.0038 32.1898C63.013 32.1744 63.0244 32.1574 63.0385 32.1393C63.0525 32.1212 63.0684 32.1032 63.0858 32.0858C63.1032 32.0684 63.1212 32.0525 63.1393 32.0385C63.1574 32.0244 63.1744 32.013 63.1898 32.0038C63.2208 31.9852 63.2407 31.9783 63.2425 31.9776C63.2438 31.9772 63.2267 31.983 63.1859 31.9889C63.145 31.9947 63.0841 32 63 32V36ZM67 32C67 31.025 66.7549 29.9265 65.9142 29.0858C65.0735 28.2451 63.975 28 63 28V32C63.0841 32 63.145 32.0053 63.1859 32.0111C63.2267 32.017 63.2438 32.0228 63.2425 32.0224C63.2407 32.0217 63.2208 32.0148 63.1898 31.9962C63.1744 31.987 63.1574 31.9756 63.1393 31.9615C63.1212 31.9475 63.1032 31.9316 63.0858 31.9142C63.0684 31.8968 63.0525 31.8788 63.0385 31.8607C63.0244 31.8426 63.013 31.8256 63.0038 31.8102C62.9852 31.7792 62.9783 31.7593 62.9776 31.7575C62.9772 31.7562 62.983 31.7733 62.9889 31.8141C62.9947 31.855 63 31.9159 63 32H67ZM81 15C80.025 15 78.9265 15.2451 78.0858 16.0858C77.2451 16.9265 77 18.025 77 19H81C81 18.9159 81.0053 18.855 81.0112 18.8141C81.017 18.7733 81.0228 18.7562 81.0224 18.7575C81.0217 18.7593 81.0148 18.7792 80.9962 18.8102C80.987 18.8256 80.9756 18.8426 80.9615 18.8607C80.9475 18.8788 80.9316 18.8968 80.9142 18.9142C80.8968 18.9316 80.8788 18.9475 80.8607 18.9615C80.8426 18.9756 80.8256 18.987 80.8102 18.9962C80.7792 19.0148 80.7593 19.0217 80.7575 19.0224C80.7562 19.0228 80.7734 19.017 80.8141 19.0111C80.855 19.0053 80.9159 19 81 19V15ZM77 19C77 20.0058 77.1836 21.2556 78.183 22.1302C79.1164 22.9469 80.298 23 81 23V19C80.9373 19 80.8811 18.999 80.8307 18.9972C80.7802 18.9953 80.7371 18.9927 80.7003 18.9896C80.6635 18.9865 80.6347 18.983 80.6128 18.9798C80.5909 18.9765 80.5777 18.9738 80.5718 18.9724C80.5659 18.9711 80.5687 18.9714 80.5786 18.9747C80.5886 18.9781 80.6064 18.9846 80.6301 18.9957C80.654 19.0069 80.6832 19.0225 80.7158 19.0434C80.7486 19.0645 80.7828 19.0899 80.817 19.1198C80.8513 19.1498 80.8829 19.1821 80.9114 19.2159C80.9399 19.2496 80.9631 19.2823 80.9816 19.3121C81.0187 19.3721 81.0319 19.4126 81.0333 19.4169C81.0339 19.419 81.0318 19.4126 81.0284 19.3962C81.025 19.3797 81.0205 19.3545 81.0162 19.3192C81.0118 19.2839 81.0077 19.24 81.0048 19.1865C81.0018 19.1329 81 19.071 81 19H77ZM81 23C81.975 23 83.0735 22.7549 83.9142 21.9142C84.7549 21.0735 85 19.975 85 19H81C81 19.0841 80.9947 19.145 80.9889 19.1859C80.983 19.2267 80.9772 19.2438 80.9776 19.2425C80.9783 19.2407 80.9852 19.2208 81.0038 19.1898C81.013 19.1744 81.0244 19.1574 81.0385 19.1393C81.0525 19.1212 81.0684 19.1032 81.0858 19.0858C81.1032 19.0684 81.1212 19.0525 81.1393 19.0385C81.1574 19.0244 81.1744 19.013 81.1898 19.0038C81.2208 18.9852 81.2407 18.9783 81.2425 18.9776C81.2438 18.9772 81.2267 18.983 81.1859 18.9889C81.145 18.9947 81.0841 19 81 19V23ZM85 19C85 18.025 84.7549 16.9265 83.9142 16.0858C83.0735 15.2451 81.975 15 81 15V19C81.0841 19 81.145 19.0053 81.1859 19.0111C81.2267 19.017 81.2438 19.0228 81.2425 19.0224C81.2407 19.0217 81.2208 19.0148 81.1898 18.9962C81.1744 18.987 81.1574 18.9756 81.1393 18.9615C81.1212 18.9475 81.1032 18.9316 81.0858 18.9142C81.0684 18.8968 81.0525 18.8788 81.0385 18.8607C81.0244 18.8426 81.013 18.8256 81.0038 18.8102C80.9852 18.7792 80.9783 18.7593 80.9776 18.7575C80.9772 18.7562 80.983 18.7733 80.9889 18.8141C80.9947 18.855 81 18.9159 81 19H85ZM75 40C74.025 40 72.9265 40.2451 72.0858 41.0858C71.2451 41.9265 71 43.025 71 44H75C75 43.9159 75.0053 43.855 75.0112 43.8141C75.017 43.7733 75.0228 43.7562 75.0224 43.7575C75.0217 43.7593 75.0148 43.7792 74.9962 43.8102C74.987 43.8256 74.9756 43.8426 74.9615 43.8607C74.9475 43.8788 74.9316 43.8968 74.9142 43.9142C74.8968 43.9316 74.8788 43.9475 74.8607 43.9615C74.8426 43.9756 74.8256 43.987 74.8102 43.9962C74.7792 44.0148 74.7593 44.0217 74.7575 44.0224C74.7562 44.0228 74.7734 44.017 74.8141 44.0111C74.855 44.0053 74.9159 44 75 44V40ZM71 44C71 45.0058 71.1836 46.2556 72.183 47.1302C73.1164 47.9469 74.298 48 75 48V44C74.9373 44 74.8811 43.999 74.8307 43.9972C74.7802 43.9953 74.7371 43.9927 74.7003 43.9896C74.6635 43.9865 74.6347 43.983 74.6128 43.9798C74.5909 43.9765 74.5777 43.9738 74.5718 43.9724C74.5659 43.9711 74.5687 43.9714 74.5786 43.9747C74.5886 43.9781 74.6064 43.9846 74.6301 43.9957C74.654 44.0069 74.6832 44.0225 74.7158 44.0434C74.7486 44.0645 74.7828 44.0899 74.817 44.1198C74.8513 44.1498 74.8829 44.1821 74.9114 44.2159C74.9399 44.2496 74.9631 44.2823 74.9816 44.3121C75.0187 44.3721 75.0319 44.4126 75.0333 44.4169C75.0339 44.419 75.0318 44.4126 75.0284 44.3962C75.025 44.3797 75.0205 44.3545 75.0162 44.3192C75.0118 44.2839 75.0077 44.24 75.0048 44.1865C75.0018 44.1329 75 44.071 75 44H71ZM75 48C75.975 48 77.0735 47.7549 77.9142 46.9142C78.7549 46.0735 79 44.975 79 44H75C75 44.0841 74.9947 44.145 74.9889 44.1859C74.983 44.2267 74.9772 44.2438 74.9776 44.2425C74.9783 44.2407 74.9852 44.2208 75.0038 44.1898C75.013 44.1744 75.0244 44.1574 75.0385 44.1393C75.0525 44.1212 75.0684 44.1032 75.0858 44.0858C75.1032 44.0684 75.1212 44.0525 75.1393 44.0385C75.1574 44.0244 75.1744 44.013 75.1898 44.0038C75.2208 43.9852 75.2407 43.9783 75.2425 43.9776C75.2438 43.9772 75.2267 43.983 75.1859 43.9889C75.145 43.9947 75.0841 44 75 44V48ZM79 44C79 43.025 78.7549 41.9265 77.9142 41.0858C77.0735 40.2451 75.975 40 75 40V44C75.0841 44 75.145 44.0053 75.1859 44.0111C75.2267 44.017 75.2438 44.0228 75.2425 44.0224C75.2407 44.0217 75.2208 44.0148 75.1898 43.9962C75.1744 43.987 75.1574 43.9756 75.1393 43.9615C75.1212 43.9475 75.1032 43.9316 75.0858 43.9142C75.0684 43.8968 75.0525 43.8788 75.0385 43.8607C75.0244 43.8426 75.013 43.8256 75.0038 43.8102C74.9852 43.7792 74.9783 43.7593 74.9776 43.7575C74.9772 43.7562 74.983 43.7733 74.9889 43.8141C74.9947 43.855 75 43.9159 75 44H79Z" fill="black"/>
</svg>
