<svg viewBox="0 0 145 145" fill="black" xmlns="http://www.w3.org/2000/svg">
<path d="M106 71C106 89.2254 91.2254 104 73 104C54.7746 104 40 89.2254 40 71C40 52.7746 54.7746 38 73 38C91.2254 38 106 52.7746 106 71Z" />
<path d="M27 75.5H1C0.5 72 5.5 66 8.5 66H27V75.5Z"/>
<path d="M36.7695 40.8911L18.0251 22.8731C20.0901 20.0033 27.8528 19.1426 30.0156 21.2216L43.353 34.0421L36.7695 40.8911Z" />
<path d="M68.2803 26.1356L68.0004 0.137129C71.4948 -0.40053 77.5483 4.53457 77.5806 7.5344L77.7798 26.0333L68.2803 26.1356Z" />
<path d="M102 34.1424L120.648 16.0243C123.445 18.1861 124.04 25.9737 121.889 28.0642L108.62 40.956L102 34.1424Z" />
<path d="M119.045 67L145.045 67.1243C145.528 70.6266 140.5 76.6027 137.5 76.5883L119 76.4999L119.045 67Z" />
<path d="M108.64 99L127.234 117.173C125.145 120.026 117.376 120.822 115.23 118.725L102 105.794L108.64 99Z" />
<path d="M77.966 118.171L77.4991 144.166C73.9907 144.603 68.0814 139.497 68.1353 136.497L68.4675 118L77.966 118.171Z" />
<path d="M43.4918 106.931L24.5222 124.712C21.7639 122.5 21.3086 114.703 23.4974 112.652L36.995 100L43.4918 106.931Z"/>
</svg>
